<svg id="svg" version="1.1" xmlns="http://www.w3.org/2000/svg" xmlns:xlink="http://www.w3.org/1999/xlink" width="400" height="400" viewBox="0, 0, 400,400"><g id="svgg"><path id="path0" d="M193.250 49.502 C 188.987 49.697,187.164 49.861,187.273 50.038 C 187.339 50.143,187.135 50.162,186.710 50.091 C 185.349 49.861,172.194 51.640,172.431 52.023 C 172.478 52.100,172.408 52.121,172.275 52.070 C 171.888 51.921,168.985 52.508,169.110 52.710 C 169.175 52.815,169.138 52.835,169.015 52.759 C 168.717 52.575,166.645 52.997,166.779 53.214 C 166.848 53.324,166.783 53.349,166.604 53.281 C 166.236 53.140,163.815 53.669,163.936 53.865 C 163.987 53.947,163.818 53.967,163.556 53.910 C 163.174 53.826,163.131 53.844,163.333 54.002 C 163.544 54.167,163.533 54.182,163.263 54.093 C 162.825 53.950,161.150 54.339,161.283 54.554 C 161.347 54.657,161.276 54.680,161.099 54.612 C 160.786 54.492,159.398 54.857,155.250 56.147 C 151.478 57.321,150.797 57.573,150.949 57.740 C 151.024 57.822,150.990 57.833,150.871 57.765 C 150.624 57.622,149.000 58.123,149.000 58.341 C 149.000 58.423,148.875 58.442,148.723 58.383 C 148.521 58.306,148.483 58.337,148.582 58.497 C 148.672 58.643,148.654 58.678,148.529 58.601 C 148.288 58.452,146.982 58.836,147.097 59.023 C 147.145 59.100,147.055 59.113,146.898 59.053 C 146.689 58.973,146.649 59.002,146.748 59.164 C 146.840 59.312,146.821 59.345,146.689 59.264 C 146.412 59.093,145.304 59.485,145.441 59.706 C 145.507 59.813,145.473 59.836,145.355 59.763 C 145.089 59.599,143.645 60.164,143.779 60.380 C 143.840 60.479,143.803 60.501,143.691 60.432 C 143.434 60.273,142.323 60.682,142.451 60.889 C 142.506 60.979,142.475 61.004,142.381 60.946 C 142.287 60.888,141.169 61.295,139.897 61.850 C 138.624 62.405,137.228 63.013,136.795 63.200 C 136.354 63.391,136.053 63.618,136.112 63.713 C 136.171 63.808,136.137 63.835,136.038 63.774 C 135.792 63.621,134.985 64.008,135.114 64.217 C 135.171 64.309,135.139 64.336,135.043 64.277 C 134.807 64.131,133.794 64.568,133.956 64.746 C 134.026 64.824,133.995 64.836,133.886 64.774 C 133.626 64.625,132.485 65.175,132.616 65.387 C 132.672 65.478,132.634 65.499,132.530 65.435 C 132.228 65.249,124.897 69.174,125.123 69.401 C 125.193 69.471,125.175 69.507,125.083 69.481 C 124.793 69.399,124.158 69.684,124.260 69.849 C 124.314 69.937,124.296 69.989,124.221 69.965 C 123.953 69.879,123.006 70.375,123.111 70.545 C 123.170 70.640,123.147 70.674,123.059 70.620 C 122.884 70.511,122.509 70.718,119.832 72.395 C 118.805 73.038,118.052 73.615,118.111 73.712 C 118.172 73.810,118.137 73.835,118.031 73.769 C 117.668 73.545,107.067 81.037,107.273 81.371 C 107.320 81.447,107.296 81.490,107.221 81.469 C 106.958 81.393,106.325 81.851,106.438 82.034 C 106.500 82.135,106.476 82.172,106.384 82.115 C 106.066 81.918,97.920 88.902,98.109 89.209 C 98.175 89.315,98.138 89.335,98.016 89.260 C 97.738 89.088,89.088 97.738,89.260 98.016 C 89.335 98.137,89.315 98.175,89.211 98.111 C 89.116 98.052,88.524 98.584,87.895 99.293 C 87.267 100.003,86.711 100.621,86.660 100.667 C 86.025 101.233,83.525 104.405,83.607 104.539 C 83.669 104.639,83.641 104.670,83.543 104.610 C 83.352 104.492,82.055 106.099,82.129 106.362 C 82.154 106.452,82.102 106.480,82.012 106.424 C 81.845 106.321,81.398 106.976,81.469 107.221 C 81.490 107.296,81.447 107.320,81.371 107.273 C 81.167 107.147,77.038 112.765,74.467 116.667 C 72.398 119.806,71.940 120.526,70.886 122.291 C 70.686 122.626,70.566 122.972,70.620 123.059 C 70.674 123.147,70.640 123.170,70.545 123.111 C 70.375 123.006,69.879 123.953,69.965 124.221 C 69.989 124.296,69.947 124.320,69.873 124.274 C 69.676 124.153,67.961 127.302,68.100 127.528 C 68.169 127.639,68.145 127.673,68.041 127.608 C 67.818 127.471,65.278 132.276,65.438 132.534 C 65.500 132.635,65.477 132.672,65.387 132.616 C 65.175 132.485,64.625 133.626,64.774 133.886 C 64.836 133.995,64.824 134.026,64.746 133.956 C 64.568 133.794,64.131 134.807,64.277 135.043 C 64.336 135.139,64.310 135.172,64.218 135.115 C 63.992 134.975,63.594 135.747,63.756 136.010 C 63.845 136.154,63.817 136.176,63.664 136.082 C 63.499 135.979,63.474 136.024,63.564 136.259 C 63.630 136.432,63.628 136.517,63.559 136.448 C 63.421 136.310,63.014 137.150,61.394 140.905 C 60.803 142.273,60.360 143.496,60.408 143.622 C 60.457 143.748,60.429 143.809,60.347 143.759 C 60.161 143.643,59.634 145.146,59.779 145.380 C 59.837 145.474,59.804 145.502,59.706 145.441 C 59.485 145.304,59.093 146.412,59.264 146.689 C 59.345 146.821,59.312 146.840,59.164 146.748 C 59.004 146.649,58.973 146.688,59.050 146.889 C 59.108 147.042,59.089 147.167,59.008 147.167 C 58.794 147.167,58.454 148.290,58.597 148.522 C 58.678 148.654,58.646 148.673,58.497 148.582 C 58.336 148.482,58.306 148.522,58.386 148.731 C 58.447 148.889,58.435 148.979,58.359 148.933 C 58.173 148.818,57.619 150.621,57.767 150.860 C 57.835 150.971,57.812 151.006,57.710 150.944 C 57.503 150.816,57.272 151.599,57.437 151.867 C 57.500 151.968,57.477 152.006,57.386 151.949 C 57.080 151.760,54.408 160.567,54.611 161.095 C 54.680 161.275,54.658 161.348,54.554 161.283 C 54.339 161.150,53.950 162.825,54.093 163.263 C 54.182 163.533,54.167 163.544,54.002 163.333 C 53.844 163.131,53.826 163.174,53.910 163.556 C 53.967 163.815,53.948 163.988,53.869 163.938 C 53.672 163.817,53.127 166.190,53.259 166.594 C 53.332 166.817,53.317 166.850,53.210 166.702 C 53.019 166.436,52.577 168.720,52.762 169.019 C 52.835 169.138,52.814 169.174,52.710 169.110 C 52.508 168.985,51.921 171.888,52.070 172.275 C 52.121 172.408,52.102 172.479,52.027 172.433 C 51.686 172.223,49.842 185.416,50.059 186.505 C 50.112 186.770,50.095 187.025,50.021 187.070 C 49.722 187.255,49.417 193.928,49.427 200.083 C 49.532 266.068,92.564 324.227,155.583 343.557 C 178.539 350.598,201.374 352.043,225.583 347.987 C 246.970 344.403,270.059 334.769,287.141 322.299 C 301.424 311.872,311.823 301.475,322.279 287.167 C 323.837 285.035,327.896 278.800,329.216 276.511 C 346.381 246.759,353.149 214.648,349.162 181.887 C 348.981 180.405,348.832 179.092,348.831 178.971 C 348.829 178.806,348.784 178.813,348.653 179.000 C 348.517 179.195,348.502 179.165,348.586 178.867 C 348.709 178.430,348.343 175.474,348.178 175.576 C 348.119 175.613,348.096 175.367,348.129 175.030 C 348.176 174.542,348.149 174.468,347.997 174.667 C 347.844 174.867,347.826 174.827,347.905 174.462 C 348.036 173.862,347.660 171.575,347.479 171.866 C 347.403 171.987,347.384 171.788,347.435 171.417 C 347.509 170.888,347.487 170.802,347.333 171.000 C 347.173 171.205,347.155 171.174,347.231 170.833 C 347.365 170.240,346.984 168.266,346.788 168.538 C 346.684 168.682,346.669 168.647,346.741 168.426 C 346.883 167.995,346.333 165.480,346.126 165.609 C 346.029 165.668,346.009 165.568,346.074 165.362 C 346.168 165.067,345.738 163.229,344.461 158.461 C 344.369 158.118,344.247 157.867,344.189 157.903 C 344.131 157.938,344.076 157.761,344.067 157.510 C 344.044 156.859,343.143 153.995,342.991 154.089 C 342.921 154.132,342.907 154.005,342.958 153.808 C 343.029 153.540,342.997 153.482,342.834 153.583 C 342.691 153.672,342.655 153.653,342.732 153.530 C 342.909 153.242,342.520 151.968,342.297 152.106 C 342.176 152.181,342.147 152.126,342.214 151.951 C 342.348 151.601,341.787 149.940,341.594 150.116 C 341.511 150.192,341.494 150.119,341.555 149.949 C 341.668 149.636,340.731 146.962,340.474 146.861 C 340.395 146.830,340.370 146.742,340.418 146.665 C 340.551 146.449,339.920 144.971,339.757 145.119 C 339.678 145.191,339.664 145.161,339.727 145.052 C 339.878 144.788,337.984 140.157,337.777 140.285 C 337.688 140.340,337.662 140.309,337.720 140.215 C 337.871 139.971,337.319 138.656,337.117 138.780 C 337.020 138.841,337.000 138.802,337.069 138.689 C 337.206 138.468,336.199 136.167,335.965 136.167 C 335.882 136.167,335.857 136.097,335.910 136.011 C 336.050 135.785,335.475 134.663,335.280 134.783 C 335.188 134.840,335.167 134.800,335.234 134.692 C 335.379 134.457,332.348 128.471,332.147 128.596 C 332.068 128.644,332.053 128.555,332.114 128.398 C 332.194 128.189,332.164 128.149,332.003 128.248 C 331.858 128.338,331.822 128.320,331.897 128.198 C 332.101 127.868,327.841 120.544,327.495 120.629 C 327.392 120.654,327.355 120.599,327.413 120.506 C 327.540 120.301,326.706 118.838,326.393 118.718 C 326.270 118.671,326.202 118.578,326.243 118.512 C 326.374 118.299,321.302 110.920,321.137 111.085 C 321.092 111.130,321.056 111.063,321.056 110.936 C 321.056 110.550,317.318 105.824,317.107 105.944 C 317.002 106.004,316.970 105.994,317.036 105.921 C 317.212 105.726,316.847 105.138,316.633 105.271 C 316.531 105.334,316.494 105.310,316.551 105.220 C 316.695 104.986,316.182 104.304,315.963 104.440 C 315.862 104.502,315.829 104.475,315.889 104.378 C 315.997 104.204,313.805 101.576,310.848 98.333 C 303.572 90.354,294.579 82.463,285.935 76.471 C 285.304 76.034,284.711 75.723,284.618 75.780 C 284.525 75.838,284.491 75.815,284.544 75.730 C 284.678 75.514,282.877 74.286,282.641 74.433 C 282.531 74.501,282.493 74.479,282.554 74.382 C 282.679 74.178,281.041 73.121,280.816 73.261 C 280.729 73.314,280.679 73.284,280.704 73.193 C 280.859 72.637,266.518 64.597,265.973 64.934 C 265.866 64.999,265.827 64.978,265.884 64.887 C 266.012 64.679,264.874 64.122,264.629 64.273 C 264.530 64.335,264.496 64.309,264.553 64.216 C 264.684 64.004,263.429 63.421,263.177 63.577 C 263.075 63.640,263.012 63.609,263.038 63.507 C 263.096 63.274,260.538 62.123,260.295 62.273 C 260.196 62.335,260.161 62.311,260.217 62.220 C 260.321 62.052,257.757 60.897,257.375 60.940 C 257.260 60.953,257.167 60.904,257.167 60.831 C 257.167 60.636,256.159 60.320,255.939 60.445 C 255.835 60.505,255.808 60.489,255.880 60.411 C 256.062 60.211,252.911 58.981,252.561 59.115 C 252.380 59.185,252.319 59.158,252.391 59.042 C 252.529 58.819,251.424 58.425,251.144 58.597 C 251.034 58.665,250.993 58.647,251.050 58.554 C 251.181 58.342,249.082 57.596,248.816 57.761 C 248.700 57.832,248.658 57.815,248.717 57.719 C 248.902 57.421,239.059 54.415,238.453 54.585 C 238.220 54.650,238.160 54.635,238.291 54.543 C 238.558 54.357,236.294 53.795,235.894 53.948 C 235.724 54.014,235.653 53.990,235.716 53.889 C 235.842 53.684,233.248 53.097,232.972 53.267 C 232.862 53.335,232.827 53.311,232.889 53.211 C 233.022 52.997,230.946 52.577,230.652 52.759 C 230.529 52.835,230.491 52.815,230.557 52.710 C 230.682 52.508,227.779 51.921,227.391 52.070 C 227.258 52.121,227.188 52.101,227.234 52.026 C 227.306 51.909,224.417 51.375,220.750 50.827 C 218.006 50.418,213.518 49.996,212.942 50.093 C 212.537 50.162,212.329 50.142,212.391 50.042 C 212.691 49.556,199.928 49.197,193.250 49.502 M184.486 104.569 C 184.448 104.608,183.620 105.051,182.647 105.554 C 176.591 108.687,171.798 112.748,168.053 117.917 C 163.010 124.878,160.593 132.448,160.586 141.302 L 160.583 144.522 161.190 145.052 C 161.524 145.344,162.123 145.846,162.521 146.167 C 164.210 147.529,166.591 149.543,167.792 150.626 C 168.502 151.266,169.417 152.081,169.824 152.437 C 170.521 153.045,171.390 153.852,174.308 156.598 C 175.842 158.041,175.610 158.020,177.809 156.907 C 179.930 155.833,179.936 155.827,179.613 155.209 C 178.530 153.133,177.442 149.411,176.802 145.594 C 175.675 138.872,176.855 129.378,179.149 126.707 C 179.564 126.224,180.363 126.053,180.687 126.378 C 180.820 126.511,181.218 126.724,181.572 126.851 C 184.812 128.021,188.733 134.820,189.587 140.750 C 190.002 143.628,189.757 147.514,189.154 147.630 C 188.580 147.740,188.000 147.360,188.000 146.876 C 188.000 146.620,187.862 145.886,187.693 145.247 C 187.525 144.607,187.293 143.671,187.178 143.167 C 185.938 137.726,181.872 130.454,180.925 131.986 C 179.702 133.966,180.533 145.855,182.324 152.000 C 182.525 152.688,182.743 153.475,182.809 153.750 C 182.969 154.417,183.319 154.444,184.929 153.916 C 194.730 150.703,205.433 150.605,215.119 153.641 C 216.366 154.032,216.322 154.071,216.884 152.083 C 218.729 145.564,219.482 132.000,217.999 132.000 C 216.139 132.000,212.261 140.375,211.246 146.583 C 211.042 147.833,211.025 147.856,210.361 147.801 L 209.751 147.750 209.550 146.667 C 208.831 142.789,210.226 135.948,212.408 132.649 C 212.642 132.296,212.833 131.963,212.833 131.909 C 212.833 131.811,213.666 130.563,214.159 129.923 C 215.060 128.753,217.193 127.000,217.716 127.000 C 217.847 127.000,218.146 126.850,218.379 126.667 C 219.360 125.895,220.884 127.458,221.509 129.881 C 221.586 130.176,221.729 130.717,221.828 131.083 C 222.951 135.232,223.108 142.234,222.181 146.833 C 222.097 147.246,221.955 147.958,221.865 148.417 C 221.531 150.111,220.407 153.704,219.903 154.688 C 219.684 155.117,219.965 155.667,220.403 155.667 C 220.473 155.667,221.311 156.042,222.266 156.500 C 223.221 156.958,224.061 157.333,224.133 157.333 C 224.267 157.333,224.720 156.932,226.750 155.015 C 227.392 154.409,228.629 153.282,229.500 152.509 C 230.371 151.737,231.121 151.061,231.167 151.008 C 231.213 150.955,231.773 150.463,232.413 149.914 C 233.052 149.366,233.802 148.720,234.079 148.479 C 234.504 148.110,236.475 146.476,237.333 145.781 C 237.471 145.670,238.168 145.130,238.882 144.581 C 240.455 143.373,240.409 143.532,240.280 139.765 C 240.118 134.998,239.067 129.761,237.670 126.750 C 237.585 126.567,237.318 125.929,237.077 125.333 C 233.812 117.264,226.798 109.924,218.174 105.552 C 215.950 104.425,215.882 104.233,217.957 104.942 C 223.497 106.836,229.269 110.199,234.250 114.435 C 237.051 116.817,239.197 119.039,241.774 122.223 C 244.362 125.421,248.717 133.403,249.435 136.264 C 249.621 137.006,251.007 136.566,252.667 135.239 C 253.247 134.775,261.204 130.702,262.583 130.163 C 263.133 129.948,263.733 129.677,263.917 129.561 C 264.285 129.328,269.789 127.214,270.583 127.001 C 270.858 126.927,271.571 126.706,272.167 126.509 C 273.139 126.188,274.694 125.744,276.333 125.319 C 283.133 123.556,290.931 123.188,295.500 124.416 C 299.429 125.473,299.500 125.542,299.500 128.360 C 299.500 129.548,299.420 130.871,299.323 131.301 C 298.889 133.219,298.763 133.665,298.278 135.000 C 297.050 138.379,295.476 140.954,292.120 145.076 C 290.325 147.280,286.469 151.128,283.761 153.417 C 283.219 153.875,282.694 154.325,282.596 154.417 C 282.497 154.508,281.967 154.916,281.417 155.322 C 280.867 155.729,280.379 156.107,280.333 156.164 C 280.287 156.220,279.987 156.446,279.667 156.667 C 279.346 156.887,279.046 157.111,279.000 157.164 C 278.538 157.702,272.933 161.349,270.417 162.750 C 269.958 163.005,269.208 163.426,268.750 163.684 C 267.680 164.287,263.709 166.247,261.667 167.180 C 260.796 167.577,260.051 167.926,260.011 167.954 C 259.771 168.125,260.439 168.344,261.669 168.496 C 264.582 168.856,268.354 169.632,271.583 170.534 C 274.081 171.232,274.639 171.399,276.250 171.930 C 279.849 173.116,282.503 174.167,285.301 175.513 C 286.429 176.056,287.380 176.500,287.413 176.500 C 287.598 176.500,291.001 178.545,292.500 179.557 C 296.928 182.548,299.891 186.190,299.604 188.288 C 299.143 191.650,292.351 196.318,285.840 197.749 C 285.178 197.894,285.134 197.732,286.670 200.860 C 287.405 202.358,288.075 203.808,288.157 204.083 C 288.240 204.358,288.504 205.108,288.744 205.750 C 291.425 212.908,292.538 223.326,291.433 230.917 C 291.008 233.835,290.825 234.171,290.889 231.917 C 291.092 224.717,289.855 218.622,286.997 212.728 C 284.008 206.567,278.114 199.273,276.364 199.570 C 273.948 199.981,265.742 200.448,258.500 200.587 C 255.246 200.650,251.946 200.750,251.167 200.809 L 249.750 200.917 249.627 202.917 C 248.555 220.280,239.626 234.847,224.833 243.366 L 223.250 244.277 223.044 247.430 C 222.856 250.310,222.587 252.536,222.159 254.750 C 221.743 256.909,221.640 256.591,223.276 258.187 C 237.578 272.137,259.170 273.531,275.052 261.530 C 276.522 260.419,276.353 260.795,274.713 262.283 C 259.641 275.964,237.585 279.562,218.857 271.394 C 216.439 270.339,216.756 270.230,215.409 272.583 C 214.884 273.500,214.240 274.564,213.977 274.947 C 213.715 275.330,213.500 275.684,213.500 275.733 C 213.500 275.783,213.171 276.332,212.770 276.953 C 211.388 279.091,210.107 281.424,208.578 284.583 C 206.841 288.172,206.407 289.104,204.706 292.917 C 203.262 296.151,202.929 296.861,201.371 300.031 C 199.552 303.733,199.677 303.654,198.732 301.694 C 198.394 300.991,197.505 299.179,196.758 297.667 C 196.010 296.154,195.188 294.429,194.930 293.833 C 194.672 293.237,194.132 292.053,193.730 291.200 C 193.329 290.348,193.000 289.621,193.000 289.585 C 193.000 289.549,192.653 288.784,192.230 287.885 C 191.806 286.986,191.241 285.762,190.972 285.167 C 189.794 282.546,187.047 277.290,186.806 277.194 C 186.730 277.164,186.667 277.072,186.667 276.990 C 186.667 276.909,186.113 276.034,185.435 275.046 C 184.758 274.058,184.038 272.950,183.835 272.583 C 182.579 270.313,182.890 270.492,181.397 271.176 C 164.566 278.884,143.349 276.566,129.083 265.460 C 124.259 261.704,123.143 260.542,126.550 262.820 C 135.814 269.018,146.276 271.116,157.000 268.928 C 162.813 267.741,169.455 264.557,173.915 260.819 C 176.165 258.932,177.500 257.591,177.500 257.216 C 177.500 257.051,177.309 255.979,177.075 254.833 C 176.474 251.885,176.179 249.294,176.091 246.172 C 176.009 243.261,176.005 243.249,175.057 242.750 C 163.623 236.740,154.094 222.526,151.761 208.000 C 151.622 207.129,151.251 205.769,150.939 204.977 C 150.626 204.185,150.243 203.029,150.087 202.407 C 149.931 201.785,149.737 201.102,149.656 200.888 L 149.508 200.500 145.796 200.494 C 140.071 200.484,127.584 199.951,124.223 199.572 C 122.724 199.403,122.589 199.475,120.545 201.535 C 112.959 209.181,109.085 218.435,108.920 229.302 C 108.892 231.163,108.823 232.732,108.768 232.788 C 108.712 232.843,108.667 232.804,108.667 232.700 C 108.667 232.596,108.537 231.665,108.378 230.631 C 107.967 227.948,107.974 219.794,108.390 216.833 C 109.251 210.703,110.596 206.186,113.096 201.024 C 114.601 197.917,114.601 197.918,113.790 197.742 C 112.870 197.542,109.400 196.373,108.650 196.011 C 108.258 195.822,107.886 195.667,107.823 195.667 C 107.761 195.667,107.024 195.288,106.185 194.826 C 100.948 191.936,98.558 188.742,99.821 186.319 C 102.151 181.850,108.551 177.322,117.728 173.650 C 118.657 173.279,119.567 172.912,119.750 172.836 C 121.802 171.984,126.516 170.527,129.417 169.850 C 130.242 169.657,131.179 169.430,131.500 169.345 C 132.450 169.094,135.442 168.565,137.521 168.280 C 139.529 168.005,139.397 167.746,136.665 166.604 C 135.591 166.155,131.241 163.969,130.201 163.354 C 129.716 163.068,129.286 162.833,129.247 162.833 C 128.515 162.833,118.543 155.969,115.917 153.657 C 111.660 149.910,108.303 146.554,106.506 144.250 C 106.220 143.883,105.894 143.471,105.782 143.333 C 105.670 143.196,105.317 142.708,104.997 142.250 C 104.678 141.792,104.378 141.379,104.330 141.333 C 101.575 138.695,98.487 127.908,99.878 125.785 C 101.402 123.460,112.078 122.799,120.164 124.530 C 121.036 124.716,121.938 124.905,122.167 124.949 C 122.574 125.028,123.600 125.310,126.042 126.016 C 127.726 126.503,130.149 127.311,130.775 127.595 C 131.064 127.726,131.347 127.833,131.404 127.833 C 131.612 127.833,135.274 129.313,136.108 129.734 C 136.579 129.972,137.021 130.167,137.090 130.167 C 137.159 130.167,138.420 130.773,139.893 131.515 C 142.391 132.772,143.268 133.235,145.167 134.300 C 145.579 134.531,146.104 134.824,146.333 134.950 C 146.563 135.077,147.650 135.732,148.750 136.406 C 150.696 137.598,151.167 137.733,151.167 137.094 C 151.167 136.673,152.737 132.971,153.893 130.667 C 159.997 118.498,170.171 109.544,183.167 104.900 C 184.206 104.528,184.635 104.421,184.486 104.569 M197.583 157.244 C 197.492 157.273,196.967 157.384,196.417 157.492 C 194.403 157.888,191.040 159.118,190.434 159.681 C 190.125 159.968,190.129 159.989,190.608 160.612 C 190.877 160.963,191.527 161.887,192.053 162.667 C 192.578 163.446,193.314 164.421,193.687 164.833 C 194.883 166.155,196.667 168.287,196.667 168.395 C 196.667 169.238,193.506 167.158,192.203 165.458 C 191.591 164.660,191.360 164.282,190.390 162.500 C 187.817 157.772,183.060 157.472,183.097 162.040 C 183.109 163.543,183.179 163.663,183.823 163.283 C 185.477 162.305,187.906 163.739,192.500 168.407 C 196.170 172.136,198.833 172.709,198.833 169.770 C 198.833 168.880,198.963 168.739,199.361 169.198 C 199.664 169.548,199.677 169.549,199.903 169.240 C 200.115 168.950,200.144 168.994,200.247 169.753 C 200.485 171.512,200.865 171.925,202.066 171.733 C 203.607 171.487,204.168 171.083,207.333 167.944 C 211.412 163.899,213.391 162.796,215.208 163.555 L 215.823 163.812 215.994 163.198 C 217.270 158.604,211.660 157.618,209.181 162.000 C 207.697 164.622,207.006 165.694,206.355 166.386 C 204.768 168.070,201.361 169.789,202.714 168.222 C 202.938 167.963,203.713 167.067,204.436 166.233 C 205.159 165.399,205.903 164.535,206.091 164.313 C 206.551 163.769,209.000 160.154,209.000 160.019 C 209.000 159.823,206.383 158.689,204.890 158.239 C 202.310 157.461,198.543 156.948,197.583 157.244 M184.430 164.697 C 183.483 165.803,183.554 166.925,184.721 169.301 C 185.174 170.222,185.984 171.136,187.216 172.116 C 187.954 172.703,189.231 172.917,192.000 172.917 C 195.792 172.917,196.357 172.735,194.789 172.019 C 194.126 171.716,193.276 170.974,191.250 168.932 C 188.175 165.831,187.438 165.192,186.143 164.501 C 184.986 163.884,185.140 163.867,184.430 164.697 M213.249 164.468 C 211.982 165.003,211.469 165.425,209.363 167.659 C 206.290 170.919,205.711 171.453,204.417 172.220 L 203.250 172.912 204.500 173.044 C 206.039 173.206,210.041 173.053,210.833 172.803 C 214.106 171.768,216.451 166.807,214.641 164.746 C 214.058 164.083,214.127 164.096,213.249 164.468 M186.131 164.903 C 187.384 165.545,188.076 166.169,191.425 169.678 C 192.885 171.207,193.282 171.561,194.167 172.124 L 194.750 172.494 191.928 172.497 C 188.655 172.500,187.498 172.180,186.242 170.925 C 185.912 170.595,185.000 169.190,185.000 169.012 C 185.000 168.914,184.934 168.833,184.853 168.833 C 184.574 168.833,184.159 166.634,184.282 165.802 C 184.464 164.564,184.980 164.313,186.131 164.903 M214.851 165.828 C 215.293 167.302,214.178 169.968,212.500 171.448 C 211.432 172.390,209.518 172.837,206.555 172.834 C 204.461 172.833,204.315 172.750,205.291 172.112 C 205.727 171.827,206.833 170.804,207.749 169.839 C 210.797 166.627,212.102 165.421,213.021 164.967 L 213.917 164.525 214.294 164.877 C 214.502 165.071,214.753 165.499,214.851 165.828 M180.626 169.982 C 179.732 170.597,178.439 171.390,177.751 171.744 C 176.261 172.510,176.285 172.391,177.419 173.385 C 178.468 174.306,178.504 174.440,177.866 175.052 L 177.398 175.500 176.824 175.070 C 171.689 171.224,162.258 172.669,159.885 177.667 C 159.144 179.227,158.925 181.995,159.402 183.785 C 159.660 184.757,159.589 184.898,158.749 185.083 C 156.359 185.612,154.145 187.642,152.695 190.635 C 150.155 195.878,151.922 205.454,156.306 210.204 C 157.033 210.991,157.098 210.938,157.210 209.464 C 157.521 205.367,159.917 201.500,162.146 201.500 C 162.742 201.500,162.993 201.079,162.816 200.376 C 162.006 197.157,161.430 195.622,160.472 194.125 C 159.776 193.038,159.510 193.083,158.050 194.533 C 156.232 196.339,156.211 195.472,158.024 193.438 C 159.151 192.173,159.751 191.990,160.867 192.569 C 161.811 193.059,161.736 193.082,163.000 191.903 C 164.043 190.929,167.875 188.085,169.493 187.083 C 170.234 186.625,171.644 185.743,172.628 185.123 C 176.237 182.848,176.347 182.821,176.821 184.090 C 177.300 185.368,177.275 185.467,176.375 185.843 C 173.645 186.985,173.645 186.985,174.457 189.511 C 174.823 190.651,175.289 192.221,175.493 193.000 C 176.026 195.042,176.071 195.123,176.783 195.335 C 181.099 196.617,184.382 197.026,190.625 197.060 C 192.940 197.073,194.833 197.125,194.833 197.175 C 194.833 197.502,188.020 198.501,185.792 198.500 C 183.988 198.500,183.961 198.369,186.219 200.575 C 187.255 201.588,188.595 202.979,189.194 203.667 L 190.285 204.917 199.518 205.009 C 210.125 205.116,208.957 205.225,209.850 204.041 C 210.237 203.530,211.526 202.150,212.716 200.976 C 214.077 199.634,214.794 198.814,214.648 198.768 C 214.521 198.727,213.427 198.653,212.218 198.603 C 211.009 198.553,209.509 198.430,208.885 198.330 C 207.015 198.029,205.105 197.641,204.750 197.488 C 204.567 197.410,204.192 197.319,203.917 197.288 C 203.642 197.256,204.899 197.265,206.710 197.307 C 211.636 197.422,216.974 196.963,220.083 196.156 C 220.817 195.966,221.643 195.752,221.921 195.681 C 223.009 195.402,223.093 195.283,223.658 193.215 C 223.952 192.134,224.458 190.445,224.782 189.462 C 225.503 187.274,225.553 187.400,223.590 186.433 C 221.803 185.552,221.809 185.563,222.433 184.071 C 222.892 182.971,223.892 183.443,230.356 187.805 C 233.776 190.114,234.444 190.605,235.964 191.934 C 237.509 193.285,237.562 193.307,238.167 192.833 C 239.285 191.959,240.782 192.772,242.249 195.050 C 242.894 196.053,242.237 195.842,241.059 194.668 C 240.414 194.025,239.762 193.500,239.611 193.500 C 238.886 193.500,237.580 196.072,236.692 199.250 C 236.057 201.519,236.073 201.658,236.964 201.664 C 239.267 201.680,242.000 206.242,242.000 210.071 C 242.000 211.119,242.155 211.215,242.764 210.542 C 246.578 206.325,248.615 198.448,247.266 193.129 C 246.293 189.293,243.473 185.994,240.621 185.356 C 239.534 185.113,239.444 184.961,239.761 183.906 C 240.047 182.958,240.073 180.693,239.813 179.467 C 238.527 173.407,228.998 170.946,222.686 175.044 L 221.623 175.734 221.229 175.242 C 220.666 174.539,221.070 173.797,222.428 173.037 C 222.735 172.865,222.529 172.333,222.155 172.333 C 221.829 172.333,217.280 169.485,217.074 169.152 C 216.818 168.737,216.387 169.066,215.917 170.037 C 215.563 170.768,214.898 171.606,213.637 172.910 C 212.659 173.922,211.575 175.125,211.230 175.583 C 210.885 176.042,210.558 176.454,210.503 176.500 C 210.449 176.546,209.924 177.183,209.337 177.917 C 208.051 179.522,205.724 182.270,204.677 183.418 C 203.814 184.365,202.903 185.446,201.322 187.398 C 199.748 189.343,199.924 189.406,196.921 185.832 C 196.190 184.962,195.550 184.213,195.498 184.167 C 195.447 184.121,194.582 183.109,193.577 181.917 C 192.572 180.726,191.589 179.563,191.393 179.334 C 191.197 179.104,190.236 177.942,189.258 176.750 C 186.972 173.964,186.071 173.000,185.750 173.000 C 185.343 173.000,183.474 170.527,183.011 169.375 C 182.713 168.635,182.504 168.688,180.626 169.982 M199.173 172.075 C 197.902 173.607,192.865 174.688,189.875 174.070 C 189.491 173.991,189.333 174.020,189.333 174.169 C 189.333 174.340,190.733 176.195,191.417 176.929 C 191.508 177.028,191.958 177.545,192.417 178.079 C 192.875 178.614,193.326 179.133,193.419 179.234 C 193.512 179.334,193.999 179.902,194.502 180.495 C 196.701 183.087,199.504 186.167,199.665 186.167 C 199.818 186.167,201.647 184.173,204.326 181.083 C 205.359 179.892,206.402 178.690,206.644 178.413 C 206.886 178.136,207.458 177.461,207.915 176.913 C 208.373 176.365,208.910 175.738,209.108 175.519 C 210.111 174.412,210.041 174.104,208.838 174.333 C 206.717 174.735,204.147 174.434,202.393 173.580 C 201.739 173.261,201.134 173.000,201.048 173.000 C 200.963 173.000,200.587 172.737,200.212 172.417 C 199.432 171.749,199.441 171.752,199.173 172.075 M167.156 201.048 C 166.228 201.701,165.602 202.264,164.272 203.641 C 163.154 204.797,162.515 205.215,162.181 205.009 C 161.948 204.865,162.149 204.327,162.610 203.867 C 163.345 203.131,162.412 203.174,161.546 203.916 C 159.546 205.628,158.542 210.477,159.647 213.083 C 160.257 214.520,160.500 214.690,160.500 213.680 C 160.500 211.571,161.806 211.705,162.854 213.921 C 164.471 217.339,166.176 218.928,167.876 218.600 C 168.173 218.543,169.461 218.357,170.738 218.188 C 173.320 217.846,172.905 218.074,174.550 216.101 C 174.898 215.683,175.441 215.219,175.757 215.069 C 176.389 214.769,177.618 213.580,177.761 213.131 C 178.102 212.060,172.938 207.265,172.261 208.025 C 171.630 208.735,171.650 209.123,172.353 209.784 C 173.026 210.417,174.167 211.859,174.167 212.077 C 174.167 212.255,173.177 211.999,172.250 211.581 C 169.984 210.560,167.043 207.176,167.412 206.015 C 167.613 205.380,167.987 205.495,169.027 206.514 C 170.224 207.685,170.328 207.637,170.329 205.917 C 170.330 204.015,169.535 201.673,168.632 200.913 C 168.026 200.403,168.077 200.399,167.156 201.048 M230.262 201.482 C 229.218 203.135,228.833 204.378,228.833 206.098 C 228.833 207.836,228.936 207.888,230.114 206.756 C 231.186 205.726,231.603 205.606,231.772 206.280 C 232.106 207.608,228.696 211.184,226.300 212.020 C 224.616 212.608,224.711 212.148,226.694 210.123 L 227.484 209.316 227.200 208.745 C 226.821 207.983,226.510 208.014,225.188 208.944 C 223.867 209.874,221.833 211.897,221.833 212.280 C 221.833 212.341,221.714 212.522,221.568 212.683 C 221.087 213.216,221.864 214.331,223.390 215.300 C 223.830 215.578,224.428 216.090,224.720 216.437 C 225.920 217.866,226.103 218.022,226.750 218.172 C 227.117 218.256,227.768 218.327,228.197 218.329 C 228.627 218.332,229.180 218.410,229.426 218.503 C 229.672 218.597,230.594 218.681,231.475 218.690 L 233.077 218.706 233.802 217.906 C 234.817 216.784,235.388 215.916,236.251 214.182 C 237.436 211.802,238.656 211.736,238.664 214.052 C 238.668 215.163,239.341 214.120,239.766 212.345 C 240.487 209.332,239.076 204.724,237.146 203.789 C 236.372 203.414,236.137 203.694,236.718 204.300 C 237.231 204.835,237.307 205.336,236.875 205.328 C 236.481 205.321,236.205 205.097,234.209 203.158 C 231.577 200.603,230.977 200.348,230.262 201.482 M168.677 201.514 C 169.418 202.555,170.155 205.362,169.926 206.273 L 169.814 206.717 169.109 206.025 C 168.376 205.305,167.622 205.111,167.200 205.533 C 166.959 205.774,166.931 207.167,167.167 207.167 C 167.258 207.167,167.333 207.262,167.333 207.377 C 167.333 208.078,170.441 211.097,171.877 211.791 C 175.086 213.342,175.486 212.547,172.872 209.811 C 172.226 209.135,172.158 208.995,172.323 208.686 C 172.505 208.346,173.000 208.189,173.000 208.472 C 173.000 208.548,173.205 208.717,173.456 208.847 C 174.461 209.368,176.068 210.872,176.850 212.025 L 177.490 212.967 177.126 213.442 C 176.613 214.110,176.178 214.479,175.551 214.777 C 175.022 215.027,174.397 215.651,173.455 216.867 C 172.862 217.632,172.176 217.780,167.749 218.101 C 165.949 218.231,164.945 217.262,163.130 213.643 C 162.108 211.603,161.231 211.219,160.404 212.448 L 160.047 212.980 159.816 212.282 C 159.122 210.185,160.003 206.050,161.475 204.500 L 161.871 204.083 161.769 204.528 C 161.621 205.172,161.804 205.500,162.309 205.500 C 162.823 205.500,163.865 204.676,165.177 203.235 C 165.503 202.877,166.065 202.341,166.427 202.045 C 167.949 200.796,168.134 200.752,168.677 201.514 M171.412 201.341 C 171.353 201.436,171.374 201.605,171.458 201.716 C 171.838 202.212,172.367 203.897,172.470 204.937 L 172.583 206.076 173.417 206.538 C 173.875 206.793,174.400 207.071,174.583 207.157 C 176.344 207.984,179.000 211.029,179.000 212.221 C 179.000 213.496,177.236 215.741,175.645 216.488 C 174.915 216.831,174.023 217.737,173.785 218.376 C 173.654 218.730,173.238 218.905,171.917 219.164 C 171.367 219.272,170.617 219.425,170.250 219.505 C 169.883 219.585,169.077 219.742,168.458 219.855 C 167.207 220.084,167.180 220.125,167.701 220.980 C 170.682 225.871,178.333 233.384,178.333 231.420 C 178.333 231.278,178.406 231.032,178.495 230.873 C 178.584 230.714,178.764 230.246,178.896 229.833 C 179.783 227.056,182.861 220.535,184.045 218.925 C 184.116 218.829,184.630 218.063,185.186 217.224 L 186.199 215.699 185.499 214.061 C 183.570 209.546,178.633 202.296,176.830 201.332 C 176.410 201.107,171.552 201.115,171.412 201.341 M232.275 201.907 C 232.811 202.314,233.878 203.284,234.645 204.062 C 236.628 206.072,237.677 206.365,237.441 204.841 L 237.349 204.250 237.684 204.667 C 237.867 204.896,238.126 205.215,238.259 205.377 C 238.392 205.538,238.500 205.733,238.500 205.810 C 238.500 205.886,238.622 206.194,238.772 206.494 C 239.279 207.511,239.399 208.246,239.397 210.333 C 239.395 212.102,239.074 214.512,239.017 213.186 C 238.964 211.948,236.333 211.789,236.333 213.025 C 236.333 213.391,234.979 215.943,234.490 216.500 C 234.207 216.821,233.795 217.315,233.572 217.598 C 233.065 218.245,232.075 218.591,231.218 218.421 C 230.321 218.243,228.606 218.013,227.325 217.898 C 226.325 217.808,226.201 217.753,225.857 217.250 C 225.310 216.452,223.859 215.000,223.608 215.000 C 223.388 215.000,222.718 214.424,222.025 213.637 L 221.633 213.193 222.185 212.388 C 222.966 211.251,223.623 210.559,224.583 209.864 C 225.042 209.532,225.454 209.221,225.500 209.172 C 225.546 209.123,225.751 208.990,225.956 208.875 C 226.996 208.294,227.282 209.022,226.376 209.940 C 224.556 211.783,224.053 212.833,224.990 212.833 C 225.260 212.833,225.527 212.758,225.583 212.667 C 225.640 212.575,225.865 212.500,226.083 212.500 C 226.302 212.500,226.527 212.425,226.583 212.333 C 226.640 212.242,226.799 212.167,226.936 212.167 C 227.518 212.167,229.585 210.510,230.671 209.174 C 230.989 208.782,231.334 208.372,231.437 208.264 C 232.139 207.523,232.373 206.171,231.891 205.638 C 231.453 205.154,231.064 205.274,230.164 206.169 C 229.184 207.144,229.063 207.051,229.231 205.448 C 229.356 204.254,229.564 203.606,230.230 202.333 C 230.966 200.926,230.980 200.923,232.275 201.907 M223.052 201.501 C 221.340 202.191,216.013 210.134,214.089 214.866 C 213.359 216.662,213.339 216.431,214.349 217.956 C 216.873 221.767,219.595 227.530,220.837 231.693 C 221.283 233.184,221.172 233.178,223.093 231.816 C 226.523 229.382,230.061 225.710,232.434 222.119 C 233.414 220.636,233.448 220.530,232.973 220.441 C 232.759 220.400,231.683 220.204,230.583 220.006 C 225.783 219.139,225.776 219.136,225.137 218.203 C 224.433 217.174,224.359 217.105,223.490 216.663 C 221.801 215.805,220.167 213.658,220.167 212.298 C 220.167 211.032,222.732 208.356,225.257 206.990 C 226.661 206.230,226.666 206.223,226.669 205.271 C 226.672 204.379,226.943 203.425,227.511 202.312 C 227.695 201.951,227.801 201.583,227.746 201.494 C 227.622 201.294,223.553 201.300,223.052 201.501 M198.167 218.932 C 196.198 219.163,193.371 219.872,191.917 220.499 C 189.633 221.483,188.042 222.233,187.663 222.503 C 187.407 222.685,187.157 222.833,187.105 222.833 C 187.054 222.833,186.448 223.176,185.759 223.594 C 184.468 224.378,184.142 224.849,183.005 227.583 C 182.929 227.767,182.709 228.272,182.517 228.707 C 182.324 229.141,182.167 229.566,182.167 229.651 C 182.167 229.736,182.026 230.134,181.854 230.534 C 180.996 232.536,181.047 232.570,183.833 231.849 C 184.612 231.647,185.512 231.415,185.833 231.332 C 186.774 231.090,190.114 230.545,191.917 230.340 C 192.833 230.236,194.183 230.079,194.917 229.992 C 196.696 229.780,203.826 229.789,205.731 230.006 C 209.317 230.415,212.830 230.971,214.167 231.342 C 214.665 231.481,215.521 231.693,217.292 232.116 C 217.708 232.215,217.777 231.960,217.514 231.300 C 217.430 231.089,217.121 230.279,216.827 229.500 C 216.293 228.086,216.136 227.716,215.203 225.658 C 213.474 221.843,204.279 218.213,198.167 218.932 M179.226 247.498 C 179.419 252.419,180.149 255.952,181.046 256.313 C 182.339 256.835,185.874 258.000,186.163 258.000 C 186.338 258.000,186.520 258.065,186.569 258.144 C 186.618 258.223,186.942 258.334,187.288 258.391 C 187.634 258.447,188.254 258.570,188.667 258.663 C 194.741 260.042,203.904 259.835,210.500 258.170 C 213.059 257.524,213.962 257.283,214.250 257.168 C 214.433 257.094,215.183 256.827,215.917 256.574 C 218.495 255.684,218.937 255.436,219.066 254.812 C 219.657 251.944,220.280 245.880,220.011 245.611 C 219.856 245.456,218.860 245.506,215.833 245.822 C 202.548 247.206,188.369 246.832,180.840 244.900 C 180.339 244.772,179.746 244.667,179.522 244.667 L 179.115 244.667 179.226 247.498 M186.280 270.942 C 186.225 270.997,186.364 271.370,186.590 271.771 C 186.815 272.172,187.196 272.856,187.435 273.292 C 187.674 273.727,188.224 274.646,188.658 275.333 C 189.092 276.021,189.589 276.808,189.761 277.083 C 189.934 277.358,190.257 277.921,190.478 278.333 C 190.909 279.137,191.722 280.364,192.187 280.913 C 192.344 281.098,192.743 281.578,193.074 281.980 C 195.261 284.630,198.663 285.416,202.635 284.188 C 204.993 283.459,207.481 281.007,209.084 277.833 C 209.246 277.512,209.727 276.725,210.152 276.083 C 212.513 272.518,213.179 270.868,211.912 271.721 C 211.731 271.843,210.946 272.188,210.167 272.487 C 209.387 272.787,208.600 273.091,208.417 273.163 C 201.447 275.901,193.275 275.372,187.917 271.836 C 186.365 270.812,186.394 270.828,186.280 270.942 " stroke="none" fill="#fbe606" fill-rule="evenodd"></path><path id="path1" d="M187.333 0.258 C 186.004 0.375,184.204 0.517,183.333 0.574 C 180.446 0.763,173.454 1.595,169.250 2.248 C 168.425 2.377,167.412 2.524,167.000 2.576 C 166.587 2.628,165.725 2.779,165.083 2.912 C 164.442 3.044,163.054 3.312,162.000 3.508 C 158.701 4.119,156.697 4.557,153.250 5.422 C 152.608 5.583,151.783 5.770,151.417 5.837 C 151.050 5.905,150.525 6.035,150.250 6.126 C 149.975 6.217,149.112 6.455,148.333 6.654 C 145.508 7.378,144.043 7.801,140.750 8.845 C 139.833 9.135,138.633 9.508,138.083 9.673 C 137.533 9.837,136.221 10.282,135.167 10.661 C 134.112 11.039,133.023 11.409,132.746 11.482 C 132.469 11.555,132.071 11.706,131.862 11.818 C 131.653 11.930,131.167 12.124,130.783 12.249 C 129.648 12.617,128.620 12.998,128.058 13.257 C 127.769 13.391,127.465 13.500,127.381 13.500 C 127.298 13.500,126.919 13.650,126.539 13.833 C 126.160 14.017,125.780 14.167,125.696 14.167 C 125.551 14.167,124.521 14.575,123.417 15.070 C 123.142 15.193,122.429 15.496,121.833 15.743 C 120.286 16.384,119.846 16.574,119.000 16.965 C 118.587 17.155,117.725 17.550,117.083 17.842 C 112.767 19.809,107.197 22.593,104.167 24.300 C 103.754 24.532,103.154 24.861,102.833 25.030 C 101.954 25.494,101.437 25.782,100.167 26.512 C 99.035 27.163,94.627 29.812,94.025 30.204 C 93.782 30.361,93.321 30.644,93.000 30.832 C 92.454 31.151,89.769 32.915,87.557 34.407 C 87.022 34.768,86.558 35.125,86.528 35.199 C 86.497 35.273,86.407 35.333,86.327 35.333 C 86.248 35.333,85.684 35.690,85.075 36.125 C 84.466 36.560,83.844 36.992,83.692 37.083 C 83.541 37.175,83.379 37.287,83.333 37.333 C 83.010 37.657,81.823 38.500,81.690 38.500 C 81.601 38.500,81.503 38.556,81.472 38.625 C 81.442 38.694,80.892 39.142,80.250 39.622 C 79.608 40.101,78.971 40.594,78.833 40.717 C 78.696 40.839,78.321 41.120,78.000 41.340 C 77.191 41.895,72.639 45.517,72.333 45.848 C 72.196 45.997,71.521 46.575,70.833 47.131 C 69.699 48.049,68.666 48.931,68.000 49.551 C 67.862 49.679,66.962 50.485,66.000 51.342 C 65.037 52.199,63.881 53.241,63.430 53.658 C 62.287 54.716,54.580 62.424,53.663 63.426 C 51.447 65.848,50.822 66.539,49.833 67.657 C 49.237 68.331,48.658 68.977,48.545 69.092 C 48.433 69.208,47.805 69.965,47.150 70.776 C 46.495 71.587,45.872 72.325,45.765 72.417 C 45.512 72.635,41.858 77.246,41.340 78.000 C 41.120 78.321,40.839 78.696,40.717 78.833 C 40.594 78.971,40.101 79.608,39.622 80.250 C 39.143 80.892,38.713 81.454,38.667 81.500 C 38.621 81.546,38.508 81.705,38.417 81.854 C 38.260 82.108,37.947 82.548,36.088 85.131 C 35.673 85.708,35.333 86.245,35.333 86.326 C 35.333 86.406,35.273 86.497,35.199 86.528 C 35.073 86.580,34.293 87.682,33.333 89.165 C 30.145 94.093,29.748 94.722,29.547 95.167 C 29.484 95.304,29.372 95.492,29.298 95.583 C 28.980 95.973,28.320 97.064,27.026 99.333 C 26.269 100.662,25.579 101.862,25.494 102.000 C 25.408 102.138,25.200 102.513,25.030 102.833 C 24.861 103.154,24.532 103.754,24.300 104.167 C 22.616 107.156,18.000 116.384,18.000 116.760 C 18.000 116.797,17.710 117.447,17.356 118.205 C 17.002 118.963,16.393 120.333,16.001 121.250 C 15.032 123.519,14.922 123.780,14.502 124.833 C 14.301 125.337,13.999 126.087,13.831 126.500 C 13.663 126.912,13.360 127.700,13.159 128.250 C 12.958 128.800,12.659 129.587,12.494 130.000 C 11.951 131.361,11.522 132.553,10.664 135.083 C 9.831 137.538,9.602 138.250,9.108 139.917 C 8.972 140.375,8.750 141.087,8.615 141.500 C 7.730 144.191,6.523 148.613,5.498 152.917 C 5.301 153.742,5.001 154.979,4.831 155.667 C 4.144 158.444,3.014 164.387,2.266 169.167 C 1.621 173.285,0.757 180.499,0.590 183.167 C 0.542 183.946,0.390 185.933,0.254 187.583 C -0.093 191.797,-0.093 208.203,0.254 212.417 C 0.390 214.067,0.542 216.054,0.590 216.833 C 0.960 222.740,2.815 235.344,4.171 241.167 C 4.353 241.946,4.501 242.721,4.501 242.889 C 4.500 243.058,4.645 243.733,4.823 244.389 C 5.000 245.046,5.305 246.258,5.500 247.083 C 6.320 250.549,7.526 255.073,7.965 256.333 C 8.109 256.746,8.279 257.346,8.344 257.667 C 8.409 257.987,8.583 258.587,8.731 259.000 C 8.880 259.412,9.595 261.550,10.321 263.750 C 11.047 265.950,11.842 268.275,12.088 268.917 C 12.333 269.558,12.641 270.383,12.771 270.750 C 13.001 271.398,13.214 271.947,13.836 273.500 C 14.001 273.912,14.301 274.662,14.502 275.167 C 14.922 276.220,15.032 276.481,16.001 278.750 C 16.393 279.667,17.002 281.037,17.356 281.795 C 17.710 282.553,18.000 283.205,18.000 283.245 C 18.000 283.625,22.595 292.807,24.300 295.833 C 24.532 296.246,24.861 296.846,25.030 297.167 C 25.200 297.487,25.408 297.862,25.494 298.000 C 25.579 298.137,26.269 299.337,27.026 300.667 C 28.320 302.936,28.980 304.027,29.298 304.417 C 29.372 304.508,29.484 304.696,29.547 304.833 C 29.748 305.278,30.145 305.907,33.333 310.835 C 33.563 311.189,34.050 311.904,34.417 312.424 C 34.783 312.943,35.159 313.491,35.250 313.642 C 35.517 314.080,36.759 315.829,37.576 316.917 C 37.989 317.467,38.381 318.029,38.446 318.167 C 38.557 318.398,40.226 320.599,40.721 321.167 C 40.842 321.304,41.120 321.679,41.340 322.000 C 41.847 322.738,45.508 327.360,45.762 327.583 C 45.867 327.675,46.470 328.386,47.101 329.162 C 47.733 329.939,48.362 330.694,48.500 330.840 C 48.637 330.986,49.237 331.659,49.833 332.337 C 50.823 333.462,51.482 334.191,53.663 336.573 C 54.615 337.613,62.325 345.327,63.427 346.342 C 63.879 346.759,65.037 347.801,66.000 348.657 C 66.962 349.513,68.283 350.689,68.935 351.271 C 69.586 351.853,70.599 352.712,71.185 353.180 C 71.771 353.647,72.380 354.169,72.540 354.340 C 72.699 354.510,73.449 355.119,74.207 355.694 C 74.964 356.269,75.733 356.879,75.917 357.050 C 76.100 357.221,76.700 357.695,77.250 358.104 C 77.800 358.513,78.438 358.993,78.667 359.172 C 78.896 359.350,79.533 359.838,80.083 360.256 C 80.633 360.674,81.202 361.106,81.347 361.216 C 81.491 361.327,81.725 361.492,81.867 361.583 C 82.110 361.741,82.646 362.123,85.131 363.912 C 85.708 364.327,86.245 364.667,86.326 364.667 C 86.406 364.667,86.497 364.727,86.528 364.801 C 86.558 364.875,87.022 365.232,87.558 365.593 C 89.671 367.018,91.960 368.519,92.810 369.038 C 93.822 369.655,94.177 369.875,96.263 371.180 C 97.081 371.692,98.237 372.389,98.833 372.729 C 100.347 373.593,100.524 373.698,101.035 374.035 C 101.283 374.199,101.602 374.333,101.743 374.333 C 101.884 374.333,102.000 374.400,102.000 374.482 C 102.000 374.564,102.281 374.755,102.625 374.908 C 102.969 375.060,103.556 375.359,103.929 375.571 C 106.211 376.866,112.186 379.910,114.417 380.913 C 114.967 381.161,115.867 381.573,116.417 381.829 C 118.245 382.681,119.567 383.271,121.250 383.989 C 122.167 384.380,123.034 384.760,123.178 384.833 C 123.322 384.906,123.960 385.165,124.595 385.409 C 125.230 385.654,126.087 385.993,126.500 386.164 C 126.912 386.335,127.700 386.639,128.250 386.839 C 128.800 387.039,129.571 387.345,129.963 387.518 C 130.355 387.692,130.784 387.833,130.917 387.833 C 131.049 387.833,131.479 387.974,131.871 388.146 C 132.731 388.524,133.132 388.661,138.333 390.356 C 143.971 392.194,146.289 392.872,150.417 393.890 C 151.398 394.133,153.351 394.615,154.833 394.982 C 155.246 395.084,155.958 395.246,156.417 395.343 C 156.875 395.439,157.887 395.659,158.667 395.831 C 160.049 396.136,161.866 396.483,165.583 397.152 C 170.435 398.026,179.377 399.173,183.167 399.408 C 183.946 399.456,185.896 399.608,187.500 399.744 C 191.616 400.095,208.384 400.095,212.500 399.744 C 214.104 399.608,216.054 399.456,216.833 399.408 C 220.623 399.173,229.565 398.026,234.417 397.152 C 238.134 396.483,239.951 396.136,241.333 395.831 C 242.112 395.659,243.125 395.439,243.583 395.343 C 244.042 395.246,244.754 395.084,245.167 394.982 C 246.649 394.615,248.602 394.133,249.583 393.890 C 251.733 393.360,255.305 392.384,256.333 392.045 C 256.746 391.909,257.346 391.740,257.667 391.668 C 257.987 391.597,258.587 391.417,259.000 391.269 C 259.412 391.121,261.212 390.515,263.000 389.922 C 264.787 389.330,266.512 388.758,266.833 388.652 C 267.154 388.545,267.737 388.318,268.129 388.146 C 268.521 387.974,268.951 387.833,269.083 387.833 C 269.216 387.833,269.645 387.692,270.037 387.518 C 270.429 387.345,271.200 387.039,271.750 386.839 C 272.300 386.639,273.087 386.339,273.500 386.172 C 273.912 386.005,274.550 385.754,274.917 385.613 C 275.787 385.279,280.113 383.424,281.500 382.790 C 282.096 382.518,283.071 382.072,283.667 381.800 C 284.262 381.527,284.975 381.204,285.250 381.081 C 287.186 380.216,293.781 376.858,296.000 375.608 C 296.412 375.375,297.031 375.060,297.375 374.908 C 297.719 374.755,298.000 374.564,298.000 374.482 C 298.000 374.400,298.146 374.333,298.323 374.333 C 298.501 374.333,298.688 374.267,298.739 374.185 C 298.789 374.104,299.600 373.603,300.540 373.073 C 301.481 372.543,302.919 371.691,303.737 371.179 C 305.873 369.845,306.194 369.646,307.190 369.038 C 308.040 368.519,310.329 367.018,312.442 365.593 C 312.978 365.232,313.442 364.875,313.472 364.801 C 313.503 364.727,313.594 364.667,313.674 364.667 C 313.755 364.667,314.292 364.327,314.869 363.912 C 317.399 362.091,317.891 361.740,318.138 361.583 C 318.360 361.442,319.581 360.519,321.333 359.169 C 321.563 358.992,322.200 358.513,322.750 358.104 C 323.300 357.695,323.900 357.221,324.083 357.051 C 324.267 356.881,324.904 356.377,325.500 355.932 C 326.096 355.486,326.696 354.999,326.833 354.848 C 326.971 354.698,327.721 354.062,328.500 353.435 C 329.279 352.808,330.442 351.826,331.083 351.254 C 331.725 350.681,333.037 349.513,334.000 348.657 C 334.962 347.801,336.121 346.759,336.573 346.342 C 337.675 345.327,345.385 337.613,346.337 336.573 C 348.518 334.191,349.177 333.462,350.167 332.337 C 350.762 331.659,351.363 330.986,351.500 330.840 C 351.637 330.694,352.267 329.939,352.899 329.162 C 353.530 328.386,354.133 327.675,354.238 327.583 C 354.492 327.360,358.153 322.738,358.660 322.000 C 358.880 321.679,359.161 321.304,359.284 321.167 C 359.732 320.666,361.439 318.410,361.554 318.167 C 361.619 318.029,362.011 317.467,362.424 316.917 C 363.256 315.809,364.491 314.069,364.750 313.640 C 364.841 313.487,365.155 313.023,365.446 312.608 C 365.737 312.193,366.122 311.643,366.302 311.385 C 366.482 311.127,367.186 310.054,367.867 309.000 C 369.610 306.301,369.722 306.123,369.926 305.750 C 370.218 305.213,370.573 304.614,370.711 304.425 C 371.173 303.789,373.615 299.702,374.151 298.667 C 374.223 298.529,374.367 298.267,374.471 298.083 C 374.576 297.900,374.800 297.487,374.970 297.167 C 375.139 296.846,375.468 296.246,375.700 295.833 C 377.405 292.807,382.000 283.625,382.000 283.245 C 382.000 283.205,382.290 282.553,382.644 281.795 C 382.998 281.037,383.607 279.667,383.999 278.750 C 384.968 276.481,385.078 276.220,385.498 275.167 C 385.699 274.662,385.999 273.912,386.164 273.500 C 386.786 271.947,386.999 271.398,387.229 270.750 C 387.359 270.383,387.667 269.558,387.912 268.917 C 388.158 268.275,388.953 265.950,389.679 263.750 C 390.405 261.550,391.120 259.412,391.269 259.000 C 391.417 258.587,391.591 257.987,391.656 257.667 C 391.721 257.346,391.891 256.746,392.035 256.333 C 392.489 255.033,393.654 250.660,394.500 247.083 C 394.695 246.258,395.000 245.046,395.177 244.389 C 395.355 243.733,395.500 243.058,395.499 242.889 C 395.499 242.721,395.647 241.946,395.829 241.167 C 397.186 235.339,399.046 222.696,399.409 216.833 C 399.457 216.054,399.607 214.067,399.743 212.417 C 399.924 210.230,399.991 206.864,399.991 200.000 C 399.991 193.136,399.924 189.770,399.743 187.583 C 399.607 185.933,399.457 183.946,399.409 183.167 C 399.046 177.304,397.186 164.661,395.829 158.833 C 395.647 158.054,395.499 157.267,395.500 157.083 C 395.501 156.900,395.356 156.225,395.179 155.583 C 395.002 154.942,394.697 153.742,394.501 152.917 C 393.643 149.299,392.487 144.962,392.035 143.667 C 391.891 143.254,391.721 142.654,391.656 142.333 C 391.591 142.012,391.417 141.412,391.269 141.000 C 391.120 140.587,390.405 138.450,389.679 136.250 C 388.953 134.050,388.158 131.725,387.912 131.083 C 387.667 130.442,387.359 129.617,387.229 129.250 C 386.999 128.602,386.786 128.053,386.164 126.500 C 385.999 126.087,385.699 125.337,385.498 124.833 C 385.078 123.780,384.968 123.519,383.999 121.250 C 383.607 120.333,382.998 118.963,382.644 118.205 C 382.290 117.447,382.000 116.797,382.000 116.760 C 382.000 116.408,377.170 106.740,375.688 104.125 C 375.493 103.781,375.176 103.219,374.984 102.875 C 374.792 102.531,374.567 102.179,374.484 102.092 C 374.401 102.005,374.333 101.805,374.333 101.647 C 374.333 101.490,374.277 101.336,374.208 101.306 C 374.139 101.275,373.524 100.275,372.841 99.083 C 371.737 97.156,371.110 96.125,370.711 95.575 C 370.573 95.386,370.218 94.787,369.926 94.250 C 369.722 93.877,369.610 93.699,367.867 91.000 C 367.186 89.946,366.482 88.873,366.302 88.615 C 366.122 88.357,365.737 87.807,365.446 87.392 C 365.155 86.977,364.841 86.513,364.750 86.360 C 364.491 85.931,363.256 84.191,362.424 83.083 C 362.011 82.533,361.620 81.974,361.555 81.841 C 361.491 81.707,361.343 81.482,361.227 81.341 C 361.111 81.199,360.678 80.633,360.265 80.083 C 359.851 79.533,359.411 78.971,359.287 78.833 C 359.162 78.696,358.880 78.321,358.660 78.000 C 358.142 77.246,354.488 72.635,354.235 72.417 C 354.128 72.325,353.505 71.587,352.850 70.776 C 352.195 69.965,351.567 69.208,351.455 69.092 C 351.342 68.977,350.762 68.331,350.167 67.657 C 349.178 66.539,348.553 65.848,346.337 63.426 C 345.420 62.424,337.713 54.716,336.570 53.658 C 336.119 53.241,334.962 52.199,334.000 51.343 C 333.037 50.487,331.725 49.319,331.083 48.746 C 329.163 47.033,323.142 42.124,322.000 41.340 C 321.679 41.120,321.304 40.842,321.167 40.721 C 320.582 40.211,318.330 38.500,318.243 38.500 C 318.160 38.500,316.902 37.569,316.667 37.333 C 316.621 37.287,316.459 37.175,316.308 37.083 C 316.156 36.992,315.534 36.560,314.925 36.125 C 314.316 35.690,313.752 35.333,313.673 35.333 C 313.593 35.333,313.503 35.273,313.472 35.199 C 313.442 35.125,312.978 34.768,312.443 34.407 C 310.231 32.915,307.546 31.151,307.000 30.832 C 306.679 30.644,306.218 30.361,305.975 30.204 C 304.959 29.543,299.731 26.430,298.625 25.826 C 298.465 25.738,298.202 25.593,298.042 25.502 C 297.881 25.412,297.487 25.200,297.167 25.031 C 296.846 24.861,296.283 24.551,295.917 24.341 C 294.076 23.284,289.078 20.742,285.917 19.253 C 280.968 16.922,280.437 16.683,277.417 15.419 C 276.408 14.996,275.337 14.542,275.036 14.409 C 274.735 14.276,274.413 14.167,274.320 14.167 C 274.227 14.167,273.840 14.017,273.461 13.833 C 273.081 13.650,272.702 13.500,272.619 13.500 C 272.535 13.500,272.231 13.391,271.942 13.257 C 271.380 12.998,270.352 12.617,269.217 12.249 C 268.833 12.124,268.347 11.930,268.138 11.818 C 267.929 11.706,267.531 11.555,267.254 11.482 C 266.977 11.409,265.887 11.039,264.833 10.661 C 263.779 10.282,262.467 9.837,261.917 9.673 C 261.367 9.508,260.167 9.135,259.250 8.845 C 255.957 7.801,254.492 7.378,251.667 6.654 C 250.887 6.455,250.025 6.217,249.750 6.126 C 249.475 6.035,248.950 5.905,248.583 5.837 C 248.217 5.770,247.392 5.583,246.750 5.422 C 244.248 4.794,243.020 4.509,241.417 4.182 C 240.500 3.996,239.037 3.696,238.167 3.516 C 237.296 3.335,236.321 3.157,236.000 3.119 C 235.679 3.080,234.779 2.930,234.000 2.783 C 230.022 2.037,220.421 0.811,216.833 0.591 C 216.054 0.543,214.104 0.392,212.500 0.256 C 208.726 -0.066,191.008 -0.064,187.333 0.258 M206.167 49.502 C 297.544 53.857,363.570 136.155,347.900 226.167 C 344.870 243.572,338.830 259.846,329.216 276.511 C 327.896 278.800,323.837 285.035,322.279 287.167 C 311.823 301.475,301.424 311.872,287.141 322.299 C 254.306 346.268,209.774 355.607,169.083 347.059 C 156.527 344.422,144.546 340.271,132.923 334.532 C 61.256 299.148,29.575 211.863,62.074 139.333 C 62.505 138.371,63.056 137.133,63.298 136.583 C 64.723 133.340,69.334 124.715,71.479 121.283 C 76.387 113.427,82.153 105.647,87.246 100.007 C 97.718 88.413,108.003 79.792,121.285 71.479 C 145.519 56.311,177.156 48.120,206.167 49.502 M183.167 104.900 C 170.171 109.544,159.997 118.498,153.893 130.667 C 152.737 132.971,151.167 136.673,151.167 137.094 C 151.167 137.733,150.696 137.598,148.750 136.406 C 147.650 135.732,146.563 135.077,146.333 134.950 C 146.104 134.824,145.579 134.531,145.167 134.300 C 143.268 133.235,142.391 132.772,139.893 131.515 C 138.420 130.773,137.159 130.167,137.090 130.167 C 137.021 130.167,136.579 129.972,136.108 129.734 C 135.274 129.313,131.612 127.833,131.404 127.833 C 131.347 127.833,131.064 127.726,130.775 127.595 C 130.149 127.311,127.726 126.503,126.042 126.016 C 123.600 125.310,122.574 125.028,122.167 124.949 C 121.938 124.905,121.036 124.716,120.164 124.530 C 112.078 122.799,101.402 123.460,99.878 125.785 C 98.487 127.908,101.575 138.695,104.330 141.333 C 104.378 141.379,104.678 141.792,104.997 142.250 C 105.317 142.708,105.670 143.196,105.782 143.333 C 105.894 143.471,106.220 143.883,106.506 144.250 C 108.303 146.554,111.660 149.910,115.917 153.657 C 118.543 155.969,128.515 162.833,129.247 162.833 C 129.286 162.833,129.716 163.068,130.201 163.354 C 131.241 163.969,135.591 166.155,136.665 166.604 C 139.397 167.746,139.529 168.005,137.521 168.280 C 135.442 168.565,132.450 169.094,131.500 169.345 C 131.179 169.430,130.242 169.657,129.417 169.850 C 126.516 170.527,121.802 171.984,119.750 172.836 C 119.567 172.912,118.657 173.279,117.728 173.650 C 108.551 177.322,102.151 181.850,99.821 186.319 C 98.558 188.742,100.948 191.936,106.185 194.826 C 107.024 195.288,107.761 195.667,107.823 195.667 C 107.886 195.667,108.258 195.822,108.650 196.011 C 109.400 196.373,112.870 197.542,113.790 197.742 C 114.601 197.918,114.601 197.917,113.096 201.024 C 110.596 206.186,109.251 210.703,108.390 216.833 C 107.974 219.794,107.967 227.948,108.378 230.631 C 108.537 231.665,108.667 232.596,108.667 232.700 C 108.667 232.804,108.712 232.843,108.768 232.788 C 108.823 232.732,108.892 231.163,108.920 229.302 C 109.085 218.435,112.959 209.181,120.545 201.535 C 122.589 199.475,122.724 199.403,124.223 199.572 C 127.584 199.951,140.071 200.484,145.796 200.494 L 149.508 200.500 149.656 200.888 C 149.737 201.102,149.931 201.785,150.087 202.407 C 150.243 203.029,150.626 204.185,150.939 204.977 C 151.251 205.769,151.622 207.129,151.761 208.000 C 154.094 222.526,163.623 236.740,175.057 242.750 C 176.005 243.249,176.009 243.261,176.091 246.172 C 176.179 249.294,176.474 251.885,177.075 254.833 C 177.608 257.445,177.609 257.406,176.958 258.062 C 172.106 262.953,166.054 266.449,158.917 268.483 C 148.445 271.467,136.298 269.342,126.550 262.820 C 123.143 260.542,124.259 261.704,129.083 265.460 C 143.349 276.566,164.566 278.884,181.397 271.176 C 182.775 270.545,182.701 270.540,183.119 271.292 C 183.310 271.635,183.633 272.217,183.835 272.583 C 184.038 272.950,184.758 274.058,185.435 275.046 C 186.113 276.034,186.667 276.909,186.667 276.990 C 186.667 277.072,186.730 277.164,186.806 277.194 C 187.047 277.290,189.794 282.546,190.972 285.167 C 191.241 285.762,191.806 286.986,192.230 287.885 C 192.653 288.784,193.000 289.549,193.000 289.585 C 193.000 289.621,193.329 290.348,193.730 291.200 C 194.132 292.053,194.672 293.237,194.930 293.833 C 195.188 294.429,196.010 296.154,196.758 297.667 C 197.505 299.179,198.394 300.991,198.732 301.694 C 199.677 303.654,199.552 303.733,201.371 300.031 C 202.929 296.861,203.262 296.151,204.706 292.917 C 208.330 284.796,210.581 280.341,212.770 276.953 C 213.171 276.332,213.500 275.783,213.500 275.733 C 213.500 275.684,213.715 275.330,213.977 274.947 C 214.240 274.564,214.884 273.500,215.409 272.583 C 216.756 270.230,216.439 270.339,218.857 271.394 C 237.585 279.562,259.641 275.964,274.713 262.283 C 276.353 260.795,276.522 260.419,275.052 261.530 C 259.170 273.531,237.578 272.137,223.276 258.187 C 221.640 256.591,221.743 256.909,222.159 254.750 C 222.587 252.536,222.856 250.310,223.044 247.430 L 223.250 244.277 224.833 243.366 C 239.626 234.847,248.555 220.280,249.627 202.917 L 249.750 200.917 251.167 200.809 C 251.946 200.750,255.246 200.650,258.500 200.587 C 265.742 200.448,273.948 199.981,276.364 199.570 C 277.682 199.346,281.686 203.781,285.236 209.395 C 289.091 215.491,291.123 223.589,290.889 231.917 C 290.825 234.171,291.008 233.835,291.433 230.917 C 292.538 223.326,291.425 212.908,288.744 205.750 C 288.504 205.108,288.240 204.358,288.157 204.083 C 288.075 203.808,287.405 202.358,286.670 200.860 C 285.134 197.732,285.178 197.894,285.840 197.749 C 292.351 196.318,299.143 191.650,299.604 188.288 C 299.891 186.190,296.928 182.548,292.500 179.557 C 291.001 178.545,287.598 176.500,287.413 176.500 C 287.380 176.500,286.429 176.056,285.301 175.513 C 282.503 174.167,279.849 173.116,276.250 171.930 C 274.639 171.399,274.081 171.232,271.583 170.534 C 268.354 169.632,264.582 168.856,261.669 168.496 C 260.439 168.344,259.771 168.125,260.011 167.954 C 260.051 167.926,260.796 167.577,261.667 167.180 C 263.709 166.247,267.680 164.287,268.750 163.684 C 269.208 163.426,269.958 163.005,270.417 162.750 C 272.933 161.349,278.538 157.702,279.000 157.164 C 279.046 157.111,279.346 156.887,279.667 156.667 C 279.987 156.446,280.287 156.220,280.333 156.164 C 280.379 156.107,280.867 155.729,281.417 155.322 C 281.967 154.916,282.497 154.508,282.596 154.417 C 282.694 154.325,283.219 153.875,283.761 153.417 C 286.469 151.128,290.325 147.280,292.120 145.076 C 295.476 140.954,297.050 138.379,298.278 135.000 C 298.763 133.665,298.889 133.219,299.323 131.301 C 299.682 129.716,299.553 126.253,299.121 125.837 C 296.464 123.279,285.186 123.023,276.333 125.319 C 274.694 125.744,273.139 126.188,272.167 126.509 C 271.571 126.706,270.858 126.927,270.583 127.001 C 269.789 127.214,264.285 129.328,263.917 129.561 C 263.733 129.677,263.133 129.948,262.583 130.163 C 261.204 130.702,253.247 134.775,252.667 135.239 C 251.007 136.566,249.621 137.006,249.435 136.264 C 248.717 133.403,244.362 125.421,241.774 122.223 C 236.868 116.160,231.702 111.778,225.250 108.204 C 222.483 106.671,217.285 104.500,216.381 104.500 C 216.226 104.500,217.033 104.973,218.174 105.552 C 226.798 109.924,233.812 117.264,237.077 125.333 C 237.318 125.929,237.585 126.567,237.670 126.750 C 239.067 129.761,240.118 134.998,240.280 139.765 C 240.409 143.532,240.455 143.373,238.882 144.581 C 238.168 145.130,237.471 145.670,237.333 145.781 C 236.475 146.476,234.504 148.110,234.079 148.479 C 233.802 148.720,233.052 149.366,232.413 149.914 C 231.773 150.463,231.213 150.955,231.167 151.008 C 231.121 151.061,230.371 151.737,229.500 152.509 C 228.629 153.282,227.392 154.409,226.750 155.015 C 224.720 156.932,224.267 157.333,224.133 157.333 C 224.061 157.333,223.221 156.958,222.266 156.500 C 221.311 156.042,220.473 155.667,220.403 155.667 C 219.965 155.667,219.684 155.117,219.903 154.688 C 220.407 153.704,221.531 150.111,221.865 148.417 C 221.955 147.958,222.097 147.246,222.181 146.833 C 223.108 142.234,222.951 135.232,221.828 131.083 C 221.729 130.717,221.586 130.176,221.509 129.881 C 220.884 127.458,219.360 125.895,218.379 126.667 C 218.146 126.850,217.847 127.000,217.716 127.000 C 217.193 127.000,215.060 128.753,214.159 129.923 C 213.666 130.563,212.833 131.811,212.833 131.909 C 212.833 131.963,212.642 132.296,212.408 132.649 C 210.226 135.948,208.831 142.789,209.550 146.667 L 209.751 147.750 210.361 147.801 C 211.025 147.856,211.042 147.833,211.246 146.583 C 212.261 140.375,216.139 132.000,217.999 132.000 C 219.482 132.000,218.729 145.564,216.884 152.083 C 216.322 154.071,216.366 154.032,215.119 153.641 C 205.433 150.605,194.730 150.703,184.929 153.916 C 183.319 154.444,182.969 154.417,182.809 153.750 C 182.743 153.475,182.525 152.688,182.324 152.000 C 180.533 145.855,179.702 133.966,180.925 131.986 C 181.872 130.454,185.938 137.726,187.178 143.167 C 187.293 143.671,187.525 144.607,187.693 145.247 C 187.862 145.886,188.000 146.620,188.000 146.876 C 188.000 147.360,188.580 147.740,189.154 147.630 C 189.757 147.514,190.002 143.628,189.587 140.750 C 188.733 134.820,184.812 128.021,181.572 126.851 C 181.218 126.724,180.820 126.511,180.687 126.378 C 180.363 126.053,179.564 126.224,179.149 126.707 C 176.855 129.378,175.675 138.872,176.802 145.594 C 177.442 149.411,178.530 153.133,179.613 155.209 C 179.936 155.827,179.930 155.833,177.809 156.907 C 175.610 158.020,175.842 158.041,174.308 156.598 C 171.390 153.852,170.521 153.045,169.824 152.437 C 169.417 152.081,168.502 151.266,167.792 150.626 C 166.591 149.543,164.210 147.529,162.521 146.167 C 162.123 145.846,161.524 145.344,161.190 145.052 L 160.583 144.522 160.586 141.302 C 160.587 139.532,160.686 137.296,160.806 136.333 C 162.456 123.033,170.343 111.920,182.647 105.554 C 185.006 104.334,185.107 104.206,183.167 104.900 M200.667 157.340 C 202.743 157.652,203.426 157.798,204.890 158.239 C 206.383 158.689,209.000 159.823,209.000 160.019 C 209.000 160.154,206.551 163.769,206.091 164.313 C 205.903 164.535,205.159 165.399,204.436 166.233 C 203.713 167.067,202.938 167.963,202.714 168.222 C 201.361 169.789,204.768 168.070,206.355 166.386 C 207.006 165.694,207.697 164.622,209.181 162.000 C 211.660 157.618,217.270 158.604,215.994 163.198 L 215.823 163.812 215.208 163.555 C 213.391 162.796,211.412 163.899,207.333 167.944 C 204.168 171.083,203.607 171.487,202.066 171.733 C 200.865 171.925,200.485 171.512,200.247 169.753 C 200.144 168.994,200.115 168.950,199.903 169.240 C 199.677 169.549,199.664 169.548,199.361 169.198 C 198.963 168.739,198.833 168.880,198.833 169.770 C 198.833 172.709,196.170 172.136,192.500 168.407 C 187.906 163.739,185.477 162.305,183.823 163.283 C 183.179 163.663,183.109 163.543,183.097 162.040 C 183.060 157.472,187.817 157.772,190.390 162.500 C 191.360 164.282,191.591 164.660,192.203 165.458 C 193.506 167.158,196.667 169.238,196.667 168.395 C 196.667 168.287,194.883 166.155,193.687 164.833 C 193.314 164.421,192.578 163.446,192.053 162.667 C 191.527 161.887,190.877 160.963,190.608 160.612 C 190.129 159.989,190.125 159.968,190.434 159.681 C 191.040 159.118,194.403 157.888,196.417 157.492 C 196.967 157.384,197.492 157.273,197.583 157.244 C 197.944 157.133,199.639 157.186,200.667 157.340 M186.143 164.501 C 187.438 165.192,188.175 165.831,191.250 168.932 C 193.276 170.974,194.126 171.716,194.789 172.019 C 196.357 172.735,195.792 172.917,192.000 172.917 C 189.231 172.917,187.954 172.703,187.216 172.116 C 185.984 171.136,185.174 170.222,184.721 169.301 C 183.554 166.925,183.483 165.803,184.430 164.697 C 185.140 163.867,184.986 163.884,186.143 164.501 M214.641 164.746 C 216.451 166.807,214.106 171.768,210.833 172.803 C 210.041 173.053,206.039 173.206,204.500 173.044 L 203.250 172.912 204.417 172.220 C 205.711 171.453,206.290 170.919,209.363 167.659 C 211.469 165.425,211.982 165.003,213.249 164.468 C 214.127 164.096,214.058 164.083,214.641 164.746 M183.011 169.375 C 183.474 170.527,185.343 173.000,185.750 173.000 C 186.071 173.000,186.972 173.964,189.258 176.750 C 190.236 177.942,191.197 179.104,191.393 179.334 C 191.589 179.563,192.572 180.726,193.577 181.917 C 194.582 183.109,195.447 184.121,195.498 184.167 C 195.550 184.213,196.190 184.962,196.921 185.832 C 199.924 189.406,199.748 189.343,201.322 187.398 C 202.903 185.446,203.814 184.365,204.677 183.418 C 205.724 182.270,208.051 179.522,209.337 177.917 C 209.924 177.183,210.449 176.546,210.503 176.500 C 210.558 176.454,210.885 176.042,211.230 175.583 C 211.575 175.125,212.659 173.922,213.637 172.910 C 214.898 171.606,215.563 170.768,215.917 170.037 C 216.387 169.066,216.818 168.737,217.074 169.152 C 217.280 169.485,221.829 172.333,222.155 172.333 C 222.529 172.333,222.735 172.865,222.428 173.037 C 221.070 173.797,220.666 174.539,221.229 175.242 L 221.623 175.734 222.686 175.044 C 231.002 169.645,242.290 175.503,239.761 183.906 C 239.444 184.961,239.534 185.113,240.621 185.356 C 243.473 185.994,246.293 189.293,247.266 193.129 C 248.615 198.448,246.578 206.325,242.764 210.542 C 242.155 211.215,242.000 211.119,242.000 210.071 C 242.000 206.242,239.267 201.680,236.964 201.664 C 236.073 201.658,236.057 201.519,236.692 199.250 C 237.580 196.072,238.886 193.500,239.611 193.500 C 239.762 193.500,240.414 194.025,241.059 194.668 C 242.237 195.842,242.894 196.053,242.249 195.050 C 240.782 192.772,239.285 191.959,238.167 192.833 C 237.562 193.307,237.509 193.285,235.964 191.934 C 234.444 190.605,233.776 190.114,230.356 187.805 C 223.892 183.443,222.892 182.971,222.433 184.071 C 221.809 185.563,221.803 185.552,223.590 186.433 C 225.553 187.400,225.503 187.274,224.782 189.462 C 224.458 190.445,223.952 192.134,223.658 193.215 C 223.093 195.283,223.009 195.402,221.921 195.681 C 221.643 195.752,220.817 195.966,220.083 196.156 C 216.974 196.963,211.636 197.422,206.710 197.307 C 204.899 197.265,203.642 197.256,203.917 197.288 C 204.192 197.319,204.567 197.410,204.750 197.488 C 205.105 197.641,207.015 198.029,208.885 198.330 C 209.509 198.430,211.009 198.553,212.218 198.603 C 213.427 198.653,214.521 198.727,214.648 198.768 C 214.794 198.814,214.077 199.634,212.716 200.976 C 211.526 202.150,210.237 203.530,209.850 204.041 C 208.957 205.225,210.125 205.116,199.518 205.009 L 190.285 204.917 189.194 203.667 C 188.595 202.979,187.255 201.588,186.219 200.575 C 183.961 198.369,183.988 198.500,185.792 198.500 C 188.020 198.501,194.833 197.502,194.833 197.175 C 194.833 197.125,192.940 197.073,190.625 197.060 C 184.382 197.026,181.099 196.617,176.783 195.335 C 176.071 195.123,176.026 195.042,175.493 193.000 C 175.289 192.221,174.823 190.651,174.457 189.511 C 173.645 186.985,173.645 186.985,176.375 185.843 C 177.275 185.467,177.300 185.368,176.821 184.090 C 176.347 182.821,176.237 182.848,172.628 185.123 C 171.644 185.743,170.234 186.625,169.493 187.083 C 167.875 188.085,164.043 190.929,163.000 191.903 C 161.736 193.082,161.811 193.059,160.867 192.569 C 159.751 191.990,159.151 192.173,158.024 193.438 C 156.211 195.472,156.232 196.339,158.050 194.533 C 159.510 193.083,159.776 193.038,160.472 194.125 C 161.430 195.622,162.006 197.157,162.816 200.376 C 162.993 201.079,162.742 201.500,162.146 201.500 C 159.917 201.500,157.521 205.367,157.210 209.464 C 157.098 210.938,157.033 210.991,156.306 210.204 C 151.922 205.454,150.155 195.878,152.695 190.635 C 154.145 187.642,156.359 185.612,158.749 185.083 C 159.589 184.898,159.660 184.757,159.402 183.785 C 158.925 181.995,159.144 179.227,159.885 177.667 C 162.258 172.669,171.689 171.224,176.824 175.070 L 177.398 175.500 177.866 175.052 C 178.504 174.440,178.468 174.306,177.419 173.385 C 176.285 172.391,176.261 172.510,177.751 171.744 C 178.439 171.390,179.732 170.597,180.626 169.982 C 182.504 168.688,182.713 168.635,183.011 169.375 M200.212 172.417 C 200.587 172.737,200.963 173.000,201.048 173.000 C 201.134 173.000,201.739 173.261,202.393 173.580 C 204.147 174.434,206.717 174.735,208.838 174.333 C 210.041 174.104,210.111 174.412,209.108 175.519 C 208.910 175.738,208.373 176.365,207.915 176.913 C 207.458 177.461,206.886 178.136,206.644 178.413 C 206.402 178.690,205.359 179.892,204.326 181.083 C 201.647 184.173,199.818 186.167,199.665 186.167 C 199.504 186.167,196.701 183.087,194.502 180.495 C 193.999 179.902,193.512 179.334,193.419 179.234 C 193.326 179.133,192.875 178.614,192.417 178.079 C 191.958 177.545,191.508 177.028,191.417 176.929 C 190.733 176.195,189.333 174.340,189.333 174.169 C 189.333 174.020,189.491 173.991,189.875 174.070 C 192.865 174.688,197.902 173.607,199.173 172.075 C 199.441 171.752,199.432 171.749,200.212 172.417 M168.632 200.913 C 169.535 201.673,170.330 204.015,170.329 205.917 C 170.328 207.637,170.224 207.685,169.027 206.514 C 167.987 205.495,167.613 205.380,167.412 206.015 C 167.043 207.176,169.984 210.560,172.250 211.581 C 173.177 211.999,174.167 212.255,174.167 212.077 C 174.167 211.859,173.026 210.417,172.353 209.784 C 171.650 209.123,171.630 208.735,172.261 208.025 C 172.938 207.265,178.102 212.060,177.761 213.131 C 177.618 213.580,176.389 214.769,175.757 215.069 C 175.441 215.219,174.898 215.683,174.550 216.101 C 172.905 218.074,173.320 217.846,170.738 218.188 C 169.461 218.357,168.173 218.543,167.876 218.600 C 166.176 218.928,164.471 217.339,162.854 213.921 C 161.806 211.705,160.500 211.571,160.500 213.680 C 160.500 214.690,160.257 214.520,159.647 213.083 C 158.542 210.477,159.546 205.628,161.546 203.916 C 162.412 203.174,163.345 203.131,162.610 203.867 C 162.149 204.327,161.948 204.865,162.181 205.009 C 162.515 205.215,163.154 204.797,164.272 203.641 C 167.008 200.809,167.869 200.271,168.632 200.913 M231.953 201.162 C 232.249 201.342,233.264 202.240,234.209 203.158 C 236.205 205.097,236.481 205.321,236.875 205.328 C 237.307 205.336,237.231 204.835,236.718 204.300 C 236.137 203.694,236.372 203.414,237.146 203.789 C 239.076 204.724,240.487 209.332,239.766 212.345 C 239.341 214.120,238.668 215.163,238.664 214.052 C 238.656 211.736,237.436 211.802,236.251 214.182 C 235.388 215.916,234.817 216.784,233.802 217.906 L 233.077 218.706 231.475 218.690 C 230.594 218.681,229.672 218.597,229.426 218.503 C 229.180 218.410,228.627 218.332,228.197 218.329 C 227.768 218.327,227.117 218.256,226.750 218.172 C 226.103 218.022,225.920 217.866,224.720 216.437 C 224.428 216.090,223.830 215.578,223.390 215.300 C 221.864 214.331,221.087 213.216,221.568 212.683 C 221.714 212.522,221.833 212.341,221.833 212.280 C 221.833 211.897,223.867 209.874,225.188 208.944 C 226.510 208.014,226.821 207.983,227.200 208.745 L 227.484 209.316 226.694 210.123 C 224.711 212.148,224.616 212.608,226.300 212.020 C 228.696 211.184,232.106 207.608,231.772 206.280 C 231.603 205.606,231.186 205.726,230.114 206.756 C 228.936 207.888,228.833 207.836,228.833 206.098 C 228.833 204.378,229.218 203.135,230.262 201.482 C 230.732 200.736,231.132 200.661,231.953 201.162 M176.830 201.332 C 178.633 202.296,183.570 209.546,185.499 214.061 L 186.199 215.699 185.186 217.224 C 184.630 218.063,184.116 218.829,184.045 218.925 C 182.861 220.535,179.783 227.056,178.896 229.833 C 178.764 230.246,178.584 230.714,178.495 230.873 C 178.406 231.032,178.333 231.278,178.333 231.420 C 178.333 233.384,170.682 225.871,167.701 220.980 C 167.180 220.125,167.207 220.084,168.458 219.855 C 169.077 219.742,169.883 219.585,170.250 219.505 C 170.617 219.425,171.367 219.272,171.917 219.164 C 173.238 218.905,173.654 218.730,173.785 218.376 C 174.023 217.737,174.915 216.831,175.645 216.488 C 177.236 215.741,179.000 213.496,179.000 212.221 C 179.000 211.029,176.344 207.984,174.583 207.157 C 174.400 207.071,173.875 206.793,173.417 206.538 L 172.583 206.076 172.470 204.937 C 172.367 203.897,171.838 202.212,171.458 201.716 C 171.374 201.605,171.353 201.436,171.412 201.341 C 171.552 201.115,176.410 201.107,176.830 201.332 M227.746 201.494 C 227.801 201.583,227.695 201.951,227.511 202.312 C 226.943 203.425,226.672 204.379,226.669 205.271 C 226.666 206.223,226.661 206.230,225.257 206.990 C 222.732 208.356,220.167 211.032,220.167 212.298 C 220.167 213.658,221.801 215.805,223.490 216.663 C 224.359 217.105,224.433 217.174,225.137 218.203 C 225.776 219.136,225.783 219.139,230.583 220.006 C 231.683 220.204,232.759 220.400,232.973 220.441 C 233.448 220.530,233.414 220.636,232.434 222.119 C 230.061 225.710,226.523 229.382,223.093 231.816 C 221.172 233.178,221.283 233.184,220.837 231.693 C 219.595 227.530,216.873 221.767,214.349 217.956 C 213.339 216.431,213.359 216.662,214.089 214.866 C 216.013 210.134,221.340 202.191,223.052 201.501 C 223.553 201.300,227.622 201.294,227.746 201.494 M204.167 219.260 C 209.025 220.274,214.094 223.213,215.203 225.658 C 216.136 227.716,216.293 228.086,216.827 229.500 C 217.121 230.279,217.430 231.089,217.514 231.300 C 217.777 231.960,217.708 232.215,217.292 232.116 C 215.521 231.693,214.665 231.481,214.167 231.342 C 212.830 230.971,209.317 230.415,205.731 230.006 C 203.826 229.789,196.696 229.780,194.917 229.992 C 194.183 230.079,192.833 230.236,191.917 230.340 C 190.114 230.545,186.774 231.090,185.833 231.332 C 185.512 231.415,184.612 231.647,183.833 231.849 C 181.047 232.570,180.996 232.536,181.854 230.534 C 182.026 230.134,182.167 229.736,182.167 229.651 C 182.167 229.566,182.324 229.141,182.517 228.707 C 182.709 228.272,182.929 227.767,183.005 227.583 C 184.142 224.849,184.468 224.378,185.759 223.594 C 186.448 223.176,187.054 222.833,187.105 222.833 C 187.157 222.833,187.407 222.685,187.663 222.503 C 188.042 222.233,189.633 221.483,191.917 220.499 C 193.371 219.872,196.198 219.163,198.167 218.932 C 199.280 218.801,202.923 219.000,204.167 219.260 M180.840 244.900 C 188.369 246.832,202.548 247.206,215.833 245.822 C 218.860 245.506,219.856 245.456,220.011 245.611 C 220.280 245.880,219.657 251.944,219.066 254.812 C 218.937 255.436,218.495 255.684,215.917 256.574 C 215.183 256.827,214.433 257.094,214.250 257.168 C 213.962 257.283,213.059 257.524,210.500 258.170 C 203.904 259.835,194.741 260.042,188.667 258.663 C 188.254 258.570,187.634 258.447,187.288 258.391 C 186.942 258.334,186.618 258.223,186.569 258.144 C 186.520 258.065,186.338 258.000,186.163 258.000 C 185.874 258.000,182.339 256.835,181.046 256.313 C 180.149 255.952,179.419 252.419,179.226 247.498 L 179.115 244.667 179.522 244.667 C 179.746 244.667,180.339 244.772,180.840 244.900 M187.917 271.836 C 193.275 275.372,201.447 275.901,208.417 273.163 C 208.600 273.091,209.387 272.787,210.167 272.487 C 210.946 272.188,211.731 271.843,211.912 271.721 C 213.179 270.868,212.513 272.518,210.152 276.083 C 209.727 276.725,209.246 277.512,209.084 277.833 C 208.481 279.028,206.897 281.276,206.122 282.037 C 202.403 285.690,196.113 285.663,193.074 281.980 C 192.743 281.578,192.344 281.098,192.187 280.913 C 191.722 280.364,190.909 279.137,190.478 278.333 C 190.257 277.921,189.934 277.358,189.761 277.083 C 189.589 276.808,189.092 276.021,188.658 275.333 C 188.224 274.646,187.674 273.727,187.435 273.292 C 187.196 272.856,186.815 272.172,186.590 271.771 C 186.193 271.067,186.183 270.723,186.565 270.954 C 186.667 271.016,187.275 271.412,187.917 271.836 " stroke="none" fill="#040404" fill-rule="evenodd"></path><path id="path2" d="M184.693 164.844 C 184.150 165.427,184.121 166.437,184.594 168.375 C 184.655 168.627,184.772 168.833,184.853 168.833 C 184.934 168.833,185.000 168.914,185.000 169.012 C 185.000 169.190,185.912 170.595,186.242 170.925 C 187.498 172.180,188.655 172.500,191.928 172.497 L 194.750 172.494 194.167 172.124 C 193.282 171.561,192.885 171.207,191.425 169.678 C 186.948 164.988,185.516 163.960,184.693 164.844 M213.021 164.967 C 212.102 165.421,210.797 166.627,207.749 169.839 C 206.833 170.804,205.727 171.827,205.291 172.112 C 204.315 172.750,204.461 172.833,206.555 172.834 C 208.554 172.836,210.584 172.546,211.417 172.141 C 214.194 170.787,215.931 166.404,214.294 164.877 L 213.917 164.525 213.021 164.967 M167.417 201.258 C 166.572 201.887,165.720 202.638,165.177 203.235 C 163.865 204.676,162.823 205.500,162.309 205.500 C 161.804 205.500,161.621 205.172,161.769 204.528 L 161.871 204.083 161.475 204.500 C 160.003 206.050,159.122 210.185,159.816 212.282 L 160.047 212.980 160.404 212.448 C 161.231 211.219,162.108 211.603,163.130 213.643 C 164.945 217.262,165.949 218.231,167.749 218.101 C 172.176 217.780,172.862 217.632,173.455 216.867 C 174.397 215.651,175.022 215.027,175.551 214.777 C 176.178 214.479,176.613 214.110,177.126 213.442 L 177.490 212.967 176.850 212.025 C 176.068 210.872,174.461 209.368,173.456 208.847 C 173.205 208.717,173.000 208.548,173.000 208.472 C 173.000 208.189,172.505 208.346,172.323 208.686 C 172.158 208.995,172.226 209.135,172.872 209.811 C 175.486 212.547,175.086 213.342,171.877 211.791 C 170.441 211.097,167.333 208.078,167.333 207.377 C 167.333 207.262,167.258 207.167,167.167 207.167 C 166.931 207.167,166.959 205.774,167.200 205.533 C 167.622 205.111,168.376 205.305,169.109 206.025 L 169.814 206.717 169.926 206.273 C 170.268 204.911,168.856 200.990,168.030 201.005 C 167.876 201.008,167.600 201.122,167.417 201.258 M230.896 201.294 C 230.324 201.669,229.380 204.024,229.231 205.448 C 229.063 207.051,229.184 207.144,230.164 206.169 C 231.064 205.274,231.453 205.154,231.891 205.638 C 232.373 206.171,232.139 207.523,231.437 208.264 C 231.334 208.372,230.989 208.782,230.671 209.174 C 229.585 210.510,227.518 212.167,226.936 212.167 C 226.799 212.167,226.640 212.242,226.583 212.333 C 226.527 212.425,226.302 212.500,226.083 212.500 C 225.865 212.500,225.640 212.575,225.583 212.667 C 225.527 212.758,225.260 212.833,224.990 212.833 C 224.053 212.833,224.556 211.783,226.376 209.940 C 227.282 209.022,226.996 208.294,225.956 208.875 C 225.751 208.990,225.546 209.123,225.500 209.172 C 225.454 209.221,225.042 209.532,224.583 209.864 C 223.623 210.559,222.966 211.251,222.185 212.388 L 221.633 213.193 222.025 213.637 C 222.718 214.424,223.388 215.000,223.608 215.000 C 223.859 215.000,225.310 216.452,225.857 217.250 C 226.201 217.753,226.325 217.808,227.325 217.898 C 228.606 218.013,230.321 218.243,231.218 218.421 C 232.075 218.591,233.065 218.245,233.572 217.598 C 233.795 217.315,234.207 216.821,234.490 216.500 C 234.979 215.943,236.333 213.391,236.333 213.025 C 236.333 211.789,238.964 211.948,239.017 213.186 C 239.074 214.512,239.395 212.102,239.397 210.333 C 239.399 208.246,239.279 207.511,238.772 206.494 C 238.622 206.194,238.500 205.886,238.500 205.810 C 238.500 205.733,238.392 205.538,238.259 205.377 C 238.126 205.215,237.867 204.896,237.684 204.667 L 237.349 204.250 237.441 204.841 C 237.677 206.365,236.628 206.072,234.645 204.062 C 233.366 202.765,231.454 201.163,231.192 201.169 C 231.132 201.171,230.999 201.227,230.896 201.294 " stroke="none" fill="#ffffff" fill-rule="evenodd"></path></g></svg>